<svg xmlns="http://www.w3.org/2000/svg" viewBox="0 0 222.793 222.793" xmlns:v="https://vecta.io/nano"><path d="M73.646 105.896h-6.25v-9.5h6.25c2.619 0 4.75 2.131 4.75 4.75s-2.13 4.75-4.75 4.75zm37.875 0h-6.25v-9.5h6.25c2.619 0 4.75 2.131 4.75 4.75s-2.13 4.75-4.75 4.75zm69.5 0v-9.5h6.25c2.619 0 4.75 2.131 4.75 4.75s-2.131 4.75-4.75 4.75h-6.25zm26.013-37.706H15.759C7.055 68.19 0 75.246 0 83.949v54.895c0 8.703 7.055 15.759 15.759 15.759h191.276c8.703 0 15.759-7.055 15.759-15.759V83.949c-.001-8.703-7.057-15.759-15.76-15.759zM44.271 105.896a5 5 0 1 1 0 10h-13.5v9.5h13.5a5 5 0 1 1 0 10h-18.5a5 5 0 0 1-5-5v-39a5 5 0 0 1 5-5h18.5a5 5 0 1 1 0 10h-13.5v9.5h13.5zm42.905 22.228a5 5 0 0 1-.507 7.053 4.98 4.98 0 0 1-3.271 1.22 4.99 4.99 0 0 1-3.782-1.727l-12.22-14.113v9.84a5 5 0 1 1-10 0v-39a5 5 0 0 1 5-5h11.25a14.77 14.77 0 0 1 14.75 14.75c0 7.203-5.189 13.216-12.025 14.498l10.805 12.479zm37.875 0a5 5 0 0 1-.507 7.053 4.98 4.98 0 0 1-3.271 1.22 4.99 4.99 0 0 1-3.782-1.727l-12.22-14.113v9.84a5 5 0 1 1-10 0v-39a5 5 0 0 1 5-5h11.25a14.77 14.77 0 0 1 14.75 14.75c0 7.203-5.189 13.216-12.025 14.498l10.805 12.479zm39.095-7.228c0 8.547-6.953 15.5-15.5 15.5s-15.5-6.953-15.5-15.5v-19c0-8.547 6.953-15.5 15.5-15.5s15.5 6.953 15.5 15.5v19zm36.655 7.228a5 5 0 0 1-.507 7.053 4.98 4.98 0 0 1-3.271 1.22 4.99 4.99 0 0 1-3.782-1.727l-12.22-14.113v9.84a5 5 0 1 1-10 0v-39a5 5 0 0 1 5-5h11.25a14.77 14.77 0 0 1 14.75 14.75c0 7.203-5.189 13.216-12.025 14.498l10.805 12.479zm-46.655-7.228a5.51 5.51 0 0 1-5.5 5.5 5.51 5.51 0 0 1-5.5-5.5v-19a5.51 5.51 0 0 1 5.5-5.5 5.51 5.51 0 0 1 5.5 5.5v19z"/></svg>